<svg width="25" height="25" viewBox="0 0 25 25" fill="none" xmlns="http://www.w3.org/2000/svg">
<g id="globe-01">
<path id="Icon" d="M21.875 13.25C22.2892 13.25 22.625 12.9142 22.625 12.5C22.625 12.0858 22.2892 11.75 21.875 11.75V13.25ZM21.75 12.5C21.75 17.6086 17.6086 21.75 12.5 21.75V23.25C18.4371 23.25 23.25 18.4371 23.25 12.5H21.75ZM12.5 21.75C7.39137 21.75 3.25 17.6086 3.25 12.5H1.75C1.75 18.4371 6.56294 23.25 12.5 23.25V21.75ZM3.25 12.5C3.25 7.39137 7.39137 3.25 12.5 3.25V1.75C6.56294 1.75 1.75 6.56294 1.75 12.5H3.25ZM12.5 3.25C17.6086 3.25 21.75 7.39137 21.75 12.5H23.25C23.25 6.56294 18.4371 1.75 12.5 1.75V3.25ZM12.5 21.75C12.1441 21.75 11.7459 21.5883 11.3183 21.1749C10.8872 20.7581 10.4646 20.1187 10.0935 19.2705C9.35226 17.5761 8.875 15.183 8.875 12.5H7.375C7.375 15.3398 7.87711 17.9467 8.71929 19.8717C9.13989 20.833 9.66008 21.6581 10.2758 22.2534C10.895 22.8521 11.6478 23.25 12.5 23.25V21.75ZM8.875 12.5C8.875 9.817 9.35226 7.42386 10.0935 5.72955C10.4646 4.88127 10.8872 4.2419 11.3183 3.82506C11.7459 3.41172 12.1441 3.25 12.5 3.25V1.75C11.6478 1.75 10.895 2.14793 10.2758 2.74664C9.66008 3.34186 9.13989 4.16695 8.71929 5.12832C7.87711 7.05329 7.375 9.66015 7.375 12.5H8.875ZM12.5 23.25C13.3522 23.25 14.105 22.8521 14.7242 22.2534C15.3399 21.6581 15.8601 20.833 16.2807 19.8717C17.1229 17.9467 17.625 15.3398 17.625 12.5H16.125C16.125 15.183 15.6477 17.5761 14.9065 19.2705C14.5354 20.1187 14.1128 20.7581 13.6816 21.1749C13.2541 21.5883 12.8559 21.75 12.5 21.75V23.25ZM17.625 12.5C17.625 9.66015 17.1229 7.05329 16.2807 5.12832C15.8601 4.16695 15.3399 3.34186 14.7242 2.74664C14.105 2.14793 13.3522 1.75 12.5 1.75V3.25C12.8559 3.25 13.2541 3.41172 13.6816 3.82506C14.1128 4.2419 14.5354 4.88127 14.9065 5.72955C15.6477 7.42386 16.125 9.817 16.125 12.5H17.625ZM2.5 13.25L21.875 13.25V11.75L2.5 11.75L2.5 13.25Z" fill="white"/>
</g>
</svg>
