<svg width="121" height="25" viewBox="0 0 121 25" fill="none" xmlns="http://www.w3.org/2000/svg">
<g clip-path="url(#clip0_648_1515)">
<path d="M79.2636 23.8491L91.8051 0.513033L104.347 23.8491H99.0569L91.8051 9.47031L84.5534 23.8491H79.2636ZM71.0758 23.8491V5.33138H57.5914V23.8491H52.981V1.15086H75.6793V23.8491H71.0689H71.0758ZM44.1971 12.5C44.1971 7.80642 40.6544 4.05573 36.1341 4.05573C31.6139 4.05573 28.0712 7.81335 28.0712 12.5C28.0712 17.1866 31.6139 21.0759 36.1341 21.0759C40.6544 21.0759 44.1971 17.1935 44.1971 12.5ZM48.7173 12.5C48.7173 19.3705 42.9977 25 36.1341 25C29.2706 25 23.551 19.3705 23.551 12.5C23.551 5.6295 29.2637 0 36.1341 0C43.0046 0 48.7173 5.6295 48.7173 12.5ZM4.60343 12.4168L16.0843 1.15086H21.8871L10.3646 12.4168L22.6913 23.8491H16.7152L4.61036 12.4168H4.60343ZM0 1.15086H4.61036V23.8491H0V1.15086Z" fill="#FF3C42"/>
<path d="M120.362 1.15088H115.752V23.8491H120.362V1.15088Z" fill="#FF3C42"/>
</g>
<defs>
<clipPath id="clip0_648_1515">
<rect width="120.355" height="25" fill="white"/>
</clipPath>
</defs>
</svg>
